<?xml version="1.0" encoding="UTF-8" standalone="no"?>
<!DOCTYPE svg PUBLIC "-//W3C//DTD SVG 1.1//EN"
 "http://www.w3.org/Graphics/SVG/1.1/DTD/svg11.dtd">
<!-- Generated by graphviz version 2.50.0 (20211204.2007)
 -->
<!-- Pages: 1 -->
<svg width="1643pt" height="620pt"
 viewBox="0.00 0.00 1643.00 620.00" xmlns="http://www.w3.org/2000/svg" xmlns:xlink="http://www.w3.org/1999/xlink">
<g id="graph0" class="graph" transform="scale(1 1) rotate(0) translate(4 616)">
<polygon fill="white" stroke="transparent" points="-4,4 -4,-616 1639,-616 1639,4 -4,4"/>
<!-- [root] aws_eip_association.eip_assoc (expand) -->
<g id="node1" class="node">
<title>[root] aws_eip_association.eip_assoc (expand)</title>
<polygon fill="none" stroke="black" points="968.5,-468 776.5,-468 776.5,-432 968.5,-432 968.5,-468"/>
<text text-anchor="middle" x="872.5" y="-446.3" font-family="Times New Roman,serif" font-size="14.00">aws_eip_association.eip_assoc</text>
</g>
<!-- [root] aws_instance.test&#45;server (expand) -->
<g id="node2" class="node">
<title>[root] aws_instance.test&#45;server (expand)</title>
<polygon fill="none" stroke="black" points="964.5,-396 812.5,-396 812.5,-360 964.5,-360 964.5,-396"/>
<text text-anchor="middle" x="888.5" y="-374.3" font-family="Times New Roman,serif" font-size="14.00">aws_instance.test&#45;server</text>
</g>
<!-- [root] aws_eip_association.eip_assoc (expand)&#45;&gt;[root] aws_instance.test&#45;server (expand) -->
<g id="edge1" class="edge">
<title>[root] aws_eip_association.eip_assoc (expand)&#45;&gt;[root] aws_instance.test&#45;server (expand)</title>
<path fill="none" stroke="black" d="M876.46,-431.7C878.22,-423.98 880.34,-414.71 882.3,-406.11"/>
<polygon fill="black" stroke="black" points="885.77,-406.63 884.59,-396.1 878.95,-405.07 885.77,-406.63"/>
</g>
<!-- [root] data.aws_eip.existing_eip (expand) -->
<g id="node10" class="node">
<title>[root] data.aws_eip.existing_eip (expand)</title>
<polygon fill="none" stroke="black" points="1485,-396 1326,-396 1326,-360 1485,-360 1485,-396"/>
<text text-anchor="middle" x="1405.5" y="-374.3" font-family="Times New Roman,serif" font-size="14.00">data.aws_eip.existing_eip</text>
</g>
<!-- [root] aws_eip_association.eip_assoc (expand)&#45;&gt;[root] data.aws_eip.existing_eip (expand) -->
<g id="edge2" class="edge">
<title>[root] aws_eip_association.eip_assoc (expand)&#45;&gt;[root] data.aws_eip.existing_eip (expand)</title>
<path fill="none" stroke="black" d="M968.67,-433.42C971.99,-432.94 975.27,-432.46 978.5,-432 1094.81,-415.46 1229.37,-399.24 1315.86,-389.19"/>
<polygon fill="black" stroke="black" points="1316.37,-392.65 1325.9,-388.02 1315.57,-385.7 1316.37,-392.65"/>
</g>
<!-- [root] aws_network_interface.network&#45;interface_for_test&#45;server (expand) -->
<g id="node4" class="node">
<title>[root] aws_network_interface.network&#45;interface_for_test&#45;server (expand)</title>
<polygon fill="none" stroke="black" points="817,-324 482,-324 482,-288 817,-288 817,-324"/>
<text text-anchor="middle" x="649.5" y="-302.3" font-family="Times New Roman,serif" font-size="14.00">aws_network_interface.network&#45;interface_for_test&#45;server</text>
</g>
<!-- [root] aws_instance.test&#45;server (expand)&#45;&gt;[root] aws_network_interface.network&#45;interface_for_test&#45;server (expand) -->
<g id="edge3" class="edge">
<title>[root] aws_instance.test&#45;server (expand)&#45;&gt;[root] aws_network_interface.network&#45;interface_for_test&#45;server (expand)</title>
<path fill="none" stroke="black" d="M830.34,-359.97C796.37,-350.01 753.32,-337.41 717.74,-326.99"/>
<polygon fill="black" stroke="black" points="718.5,-323.56 707.92,-324.11 716.53,-330.28 718.5,-323.56"/>
</g>
<!-- [root] var.image_name -->
<g id="node19" class="node">
<title>[root] var.image_name</title>
<polygon fill="none" stroke="black" points="936,-324 835,-324 835,-288 942,-288 942,-318 936,-324"/>
<polyline fill="none" stroke="black" points="936,-324 936,-318 "/>
<polyline fill="none" stroke="black" points="942,-318 936,-318 "/>
<text text-anchor="middle" x="888.5" y="-302.3" font-family="Times New Roman,serif" font-size="14.00">var.image_name</text>
</g>
<!-- [root] aws_instance.test&#45;server (expand)&#45;&gt;[root] var.image_name -->
<g id="edge4" class="edge">
<title>[root] aws_instance.test&#45;server (expand)&#45;&gt;[root] var.image_name</title>
<path fill="none" stroke="black" d="M888.5,-359.7C888.5,-351.98 888.5,-342.71 888.5,-334.11"/>
<polygon fill="black" stroke="black" points="892,-334.1 888.5,-324.1 885,-334.1 892,-334.1"/>
</g>
<!-- [root] var.instance_tags -->
<g id="node20" class="node">
<title>[root] var.instance_tags</title>
<polygon fill="none" stroke="black" points="1067,-324 960,-324 960,-288 1073,-288 1073,-318 1067,-324"/>
<polyline fill="none" stroke="black" points="1067,-324 1067,-318 "/>
<polyline fill="none" stroke="black" points="1073,-318 1067,-318 "/>
<text text-anchor="middle" x="1016.5" y="-302.3" font-family="Times New Roman,serif" font-size="14.00">var.instance_tags</text>
</g>
<!-- [root] aws_instance.test&#45;server (expand)&#45;&gt;[root] var.instance_tags -->
<g id="edge5" class="edge">
<title>[root] aws_instance.test&#45;server (expand)&#45;&gt;[root] var.instance_tags</title>
<path fill="none" stroke="black" d="M919.81,-359.88C936.7,-350.64 957.75,-339.13 975.88,-329.21"/>
<polygon fill="black" stroke="black" points="977.97,-332.06 985.07,-324.19 974.61,-325.92 977.97,-332.06"/>
</g>
<!-- [root] var.instance_type -->
<g id="node21" class="node">
<title>[root] var.instance_type</title>
<polygon fill="none" stroke="black" points="1199.5,-324 1091.5,-324 1091.5,-288 1205.5,-288 1205.5,-318 1199.5,-324"/>
<polyline fill="none" stroke="black" points="1199.5,-324 1199.5,-318 "/>
<polyline fill="none" stroke="black" points="1205.5,-318 1199.5,-318 "/>
<text text-anchor="middle" x="1148.5" y="-302.3" font-family="Times New Roman,serif" font-size="14.00">var.instance_type</text>
</g>
<!-- [root] aws_instance.test&#45;server (expand)&#45;&gt;[root] var.instance_type -->
<g id="edge6" class="edge">
<title>[root] aws_instance.test&#45;server (expand)&#45;&gt;[root] var.instance_type</title>
<path fill="none" stroke="black" d="M951.77,-359.97C991.07,-349.39 1041.53,-335.8 1081.51,-325.04"/>
<polygon fill="black" stroke="black" points="1082.42,-328.41 1091.17,-322.44 1080.6,-321.66 1082.42,-328.41"/>
</g>
<!-- [root] aws_internet_gateway.gateway_for_test&#45;server (expand) -->
<g id="node3" class="node">
<title>[root] aws_internet_gateway.gateway_for_test&#45;server (expand)</title>
<polygon fill="none" stroke="black" points="277,-324 0,-324 0,-288 277,-288 277,-324"/>
<text text-anchor="middle" x="138.5" y="-302.3" font-family="Times New Roman,serif" font-size="14.00">aws_internet_gateway.gateway_for_test&#45;server</text>
</g>
<!-- [root] aws_vpc.vpc_for_test&#45;server (expand) -->
<g id="node9" class="node">
<title>[root] aws_vpc.vpc_for_test&#45;server (expand)</title>
<polygon fill="none" stroke="black" points="504,-180 323,-180 323,-144 504,-144 504,-180"/>
<text text-anchor="middle" x="413.5" y="-158.3" font-family="Times New Roman,serif" font-size="14.00">aws_vpc.vpc_for_test&#45;server</text>
</g>
<!-- [root] aws_internet_gateway.gateway_for_test&#45;server (expand)&#45;&gt;[root] aws_vpc.vpc_for_test&#45;server (expand) -->
<g id="edge7" class="edge">
<title>[root] aws_internet_gateway.gateway_for_test&#45;server (expand)&#45;&gt;[root] aws_vpc.vpc_for_test&#45;server (expand)</title>
<path fill="none" stroke="black" d="M167.63,-287.92C199.43,-269.49 252.02,-239.6 298.5,-216 320.17,-205 344.58,-193.61 365.31,-184.23"/>
<polygon fill="black" stroke="black" points="366.87,-187.36 374.55,-180.07 364,-180.98 366.87,-187.36"/>
</g>
<!-- [root] var.gateway_tags -->
<g id="node18" class="node">
<title>[root] var.gateway_tags</title>
<polygon fill="none" stroke="black" points="189,-252 82,-252 82,-216 195,-216 195,-246 189,-252"/>
<polyline fill="none" stroke="black" points="189,-252 189,-246 "/>
<polyline fill="none" stroke="black" points="195,-246 189,-246 "/>
<text text-anchor="middle" x="138.5" y="-230.3" font-family="Times New Roman,serif" font-size="14.00">var.gateway_tags</text>
</g>
<!-- [root] aws_internet_gateway.gateway_for_test&#45;server (expand)&#45;&gt;[root] var.gateway_tags -->
<g id="edge8" class="edge">
<title>[root] aws_internet_gateway.gateway_for_test&#45;server (expand)&#45;&gt;[root] var.gateway_tags</title>
<path fill="none" stroke="black" d="M138.5,-287.7C138.5,-279.98 138.5,-270.71 138.5,-262.11"/>
<polygon fill="black" stroke="black" points="142,-262.1 138.5,-252.1 135,-262.1 142,-262.1"/>
</g>
<!-- [root] aws_security_group.security&#45;group_for_test&#45;server (expand) -->
<g id="node7" class="node">
<title>[root] aws_security_group.security&#45;group_for_test&#45;server (expand)</title>
<polygon fill="none" stroke="black" points="841.5,-252 537.5,-252 537.5,-216 841.5,-216 841.5,-252"/>
<text text-anchor="middle" x="689.5" y="-230.3" font-family="Times New Roman,serif" font-size="14.00">aws_security_group.security&#45;group_for_test&#45;server</text>
</g>
<!-- [root] aws_network_interface.network&#45;interface_for_test&#45;server (expand)&#45;&gt;[root] aws_security_group.security&#45;group_for_test&#45;server (expand) -->
<g id="edge9" class="edge">
<title>[root] aws_network_interface.network&#45;interface_for_test&#45;server (expand)&#45;&gt;[root] aws_security_group.security&#45;group_for_test&#45;server (expand)</title>
<path fill="none" stroke="black" d="M659.39,-287.7C663.99,-279.64 669.56,-269.89 674.65,-260.98"/>
<polygon fill="black" stroke="black" points="677.8,-262.52 679.73,-252.1 671.73,-259.05 677.8,-262.52"/>
</g>
<!-- [root] aws_subnet.subnet_for_test&#45;server (expand) -->
<g id="node8" class="node">
<title>[root] aws_subnet.subnet_for_test&#45;server (expand)</title>
<polygon fill="none" stroke="black" points="519.5,-252 307.5,-252 307.5,-216 519.5,-216 519.5,-252"/>
<text text-anchor="middle" x="413.5" y="-230.3" font-family="Times New Roman,serif" font-size="14.00">aws_subnet.subnet_for_test&#45;server</text>
</g>
<!-- [root] aws_network_interface.network&#45;interface_for_test&#45;server (expand)&#45;&gt;[root] aws_subnet.subnet_for_test&#45;server (expand) -->
<g id="edge10" class="edge">
<title>[root] aws_network_interface.network&#45;interface_for_test&#45;server (expand)&#45;&gt;[root] aws_subnet.subnet_for_test&#45;server (expand)</title>
<path fill="none" stroke="black" d="M592.07,-287.97C558.52,-278.01 516.01,-265.41 480.89,-254.99"/>
<polygon fill="black" stroke="black" points="481.77,-251.6 471.19,-252.11 479.78,-258.31 481.77,-251.6"/>
</g>
<!-- [root] var.private_ip -->
<g id="node22" class="node">
<title>[root] var.private_ip</title>
<polygon fill="none" stroke="black" points="947,-252 860,-252 860,-216 953,-216 953,-246 947,-252"/>
<polyline fill="none" stroke="black" points="947,-252 947,-246 "/>
<polyline fill="none" stroke="black" points="953,-246 947,-246 "/>
<text text-anchor="middle" x="906.5" y="-230.3" font-family="Times New Roman,serif" font-size="14.00">var.private_ip</text>
</g>
<!-- [root] aws_network_interface.network&#45;interface_for_test&#45;server (expand)&#45;&gt;[root] var.private_ip -->
<g id="edge11" class="edge">
<title>[root] aws_network_interface.network&#45;interface_for_test&#45;server (expand)&#45;&gt;[root] var.private_ip</title>
<path fill="none" stroke="black" d="M716.67,-287.95C753.44,-278.46 800.01,-266.19 850.07,-252.07"/>
<polygon fill="black" stroke="black" points="851.12,-255.41 859.79,-249.32 849.21,-248.68 851.12,-255.41"/>
</g>
<!-- [root] aws_route_table.route&#45;table_for_test&#45;server (expand) -->
<g id="node5" class="node">
<title>[root] aws_route_table.route&#45;table_for_test&#45;server (expand)</title>
<polygon fill="none" stroke="black" points="425.5,-396 165.5,-396 165.5,-360 425.5,-360 425.5,-396"/>
<text text-anchor="middle" x="295.5" y="-374.3" font-family="Times New Roman,serif" font-size="14.00">aws_route_table.route&#45;table_for_test&#45;server</text>
</g>
<!-- [root] aws_route_table.route&#45;table_for_test&#45;server (expand)&#45;&gt;[root] aws_internet_gateway.gateway_for_test&#45;server (expand) -->
<g id="edge12" class="edge">
<title>[root] aws_route_table.route&#45;table_for_test&#45;server (expand)&#45;&gt;[root] aws_internet_gateway.gateway_for_test&#45;server (expand)</title>
<path fill="none" stroke="black" d="M257.09,-359.88C235.63,-350.31 208.7,-338.3 185.93,-328.15"/>
<polygon fill="black" stroke="black" points="187.34,-324.94 176.78,-324.07 184.49,-331.34 187.34,-324.94"/>
</g>
<!-- [root] var.route_table_tags -->
<g id="node23" class="node">
<title>[root] var.route_table_tags</title>
<polygon fill="none" stroke="black" points="419.5,-324 295.5,-324 295.5,-288 425.5,-288 425.5,-318 419.5,-324"/>
<polyline fill="none" stroke="black" points="419.5,-324 419.5,-318 "/>
<polyline fill="none" stroke="black" points="425.5,-318 419.5,-318 "/>
<text text-anchor="middle" x="360.5" y="-302.3" font-family="Times New Roman,serif" font-size="14.00">var.route_table_tags</text>
</g>
<!-- [root] aws_route_table.route&#45;table_for_test&#45;server (expand)&#45;&gt;[root] var.route_table_tags -->
<g id="edge13" class="edge">
<title>[root] aws_route_table.route&#45;table_for_test&#45;server (expand)&#45;&gt;[root] var.route_table_tags</title>
<path fill="none" stroke="black" d="M311.57,-359.7C319.44,-351.22 329.06,-340.86 337.67,-331.58"/>
<polygon fill="black" stroke="black" points="340.38,-333.81 344.62,-324.1 335.25,-329.05 340.38,-333.81"/>
</g>
<!-- [root] aws_route_table_association.assoc&#45;1 (expand) -->
<g id="node6" class="node">
<title>[root] aws_route_table_association.assoc&#45;1 (expand)</title>
<polygon fill="none" stroke="black" points="566,-468 341,-468 341,-432 566,-432 566,-468"/>
<text text-anchor="middle" x="453.5" y="-446.3" font-family="Times New Roman,serif" font-size="14.00">aws_route_table_association.assoc&#45;1</text>
</g>
<!-- [root] aws_route_table_association.assoc&#45;1 (expand)&#45;&gt;[root] aws_route_table.route&#45;table_for_test&#45;server (expand) -->
<g id="edge14" class="edge">
<title>[root] aws_route_table_association.assoc&#45;1 (expand)&#45;&gt;[root] aws_route_table.route&#45;table_for_test&#45;server (expand)</title>
<path fill="none" stroke="black" d="M414.85,-431.88C393.25,-422.31 366.15,-410.3 343.23,-400.15"/>
<polygon fill="black" stroke="black" points="344.59,-396.92 334.03,-396.07 341.75,-403.32 344.59,-396.92"/>
</g>
<!-- [root] aws_route_table_association.assoc&#45;1 (expand)&#45;&gt;[root] aws_subnet.subnet_for_test&#45;server (expand) -->
<g id="edge15" class="edge">
<title>[root] aws_route_table_association.assoc&#45;1 (expand)&#45;&gt;[root] aws_subnet.subnet_for_test&#45;server (expand)</title>
<path fill="none" stroke="black" d="M452.93,-431.82C451.63,-402.08 447.46,-339.3 434.5,-288 432.27,-279.17 428.93,-269.84 425.57,-261.52"/>
<polygon fill="black" stroke="black" points="428.79,-260.14 421.67,-252.29 422.34,-262.86 428.79,-260.14"/>
</g>
<!-- [root] aws_security_group.security&#45;group_for_test&#45;server (expand)&#45;&gt;[root] aws_vpc.vpc_for_test&#45;server (expand) -->
<g id="edge16" class="edge">
<title>[root] aws_security_group.security&#45;group_for_test&#45;server (expand)&#45;&gt;[root] aws_vpc.vpc_for_test&#45;server (expand)</title>
<path fill="none" stroke="black" d="M622.34,-215.97C582.6,-205.89 532.11,-193.08 490.73,-182.59"/>
<polygon fill="black" stroke="black" points="491.52,-179.18 480.97,-180.11 489.8,-185.96 491.52,-179.18"/>
</g>
<!-- [root] aws_subnet.subnet_for_test&#45;server (expand)&#45;&gt;[root] aws_vpc.vpc_for_test&#45;server (expand) -->
<g id="edge17" class="edge">
<title>[root] aws_subnet.subnet_for_test&#45;server (expand)&#45;&gt;[root] aws_vpc.vpc_for_test&#45;server (expand)</title>
<path fill="none" stroke="black" d="M413.5,-215.7C413.5,-207.98 413.5,-198.71 413.5,-190.11"/>
<polygon fill="black" stroke="black" points="417,-190.1 413.5,-180.1 410,-190.1 417,-190.1"/>
</g>
<!-- [root] var.subnet_info -->
<g id="node25" class="node">
<title>[root] var.subnet_info</title>
<polygon fill="none" stroke="black" points="620.5,-180 522.5,-180 522.5,-144 626.5,-144 626.5,-174 620.5,-180"/>
<polyline fill="none" stroke="black" points="620.5,-180 620.5,-174 "/>
<polyline fill="none" stroke="black" points="626.5,-174 620.5,-174 "/>
<text text-anchor="middle" x="574.5" y="-158.3" font-family="Times New Roman,serif" font-size="14.00">var.subnet_info</text>
</g>
<!-- [root] aws_subnet.subnet_for_test&#45;server (expand)&#45;&gt;[root] var.subnet_info -->
<g id="edge18" class="edge">
<title>[root] aws_subnet.subnet_for_test&#45;server (expand)&#45;&gt;[root] var.subnet_info</title>
<path fill="none" stroke="black" d="M452.89,-215.88C474.89,-206.31 502.51,-194.3 525.86,-184.15"/>
<polygon fill="black" stroke="black" points="527.47,-187.27 535.24,-180.07 524.68,-180.85 527.47,-187.27"/>
</g>
<!-- [root] provider[&quot;registry.terraform.io/hashicorp/aws&quot;] -->
<g id="node15" class="node">
<title>[root] provider[&quot;registry.terraform.io/hashicorp/aws&quot;]</title>
<polygon fill="none" stroke="black" points="1121.5,-108 864.27,-90 1121.5,-72 1378.73,-90 1121.5,-108"/>
<text text-anchor="middle" x="1121.5" y="-86.3" font-family="Times New Roman,serif" font-size="14.00">provider[&quot;registry.terraform.io/hashicorp/aws&quot;]</text>
</g>
<!-- [root] aws_vpc.vpc_for_test&#45;server (expand)&#45;&gt;[root] provider[&quot;registry.terraform.io/hashicorp/aws&quot;] -->
<g id="edge19" class="edge">
<title>[root] aws_vpc.vpc_for_test&#45;server (expand)&#45;&gt;[root] provider[&quot;registry.terraform.io/hashicorp/aws&quot;]</title>
<path fill="none" stroke="black" d="M504.2,-145.25C507.34,-144.81 510.44,-144.39 513.5,-144 674.37,-123.35 860.24,-108.45 983.69,-99.8"/>
<polygon fill="black" stroke="black" points="984.22,-103.27 993.95,-99.08 983.73,-96.29 984.22,-103.27"/>
</g>
<!-- [root] var.vpc_cidr_block -->
<g id="node26" class="node">
<title>[root] var.vpc_cidr_block</title>
<polygon fill="none" stroke="black" points="534,-108 413,-108 413,-72 540,-72 540,-102 534,-108"/>
<polyline fill="none" stroke="black" points="534,-108 534,-102 "/>
<polyline fill="none" stroke="black" points="540,-102 534,-102 "/>
<text text-anchor="middle" x="476.5" y="-86.3" font-family="Times New Roman,serif" font-size="14.00">var.vpc_cidr_block</text>
</g>
<!-- [root] aws_vpc.vpc_for_test&#45;server (expand)&#45;&gt;[root] var.vpc_cidr_block -->
<g id="edge20" class="edge">
<title>[root] aws_vpc.vpc_for_test&#45;server (expand)&#45;&gt;[root] var.vpc_cidr_block</title>
<path fill="none" stroke="black" d="M429.07,-143.7C436.7,-135.22 446.02,-124.86 454.38,-115.58"/>
<polygon fill="black" stroke="black" points="457.02,-117.88 461.11,-108.1 451.81,-113.2 457.02,-117.88"/>
</g>
<!-- [root] var.vpc_tags -->
<g id="node27" class="node">
<title>[root] var.vpc_tags</title>
<polygon fill="none" stroke="black" points="389,-108 306,-108 306,-72 395,-72 395,-102 389,-108"/>
<polyline fill="none" stroke="black" points="389,-108 389,-102 "/>
<polyline fill="none" stroke="black" points="395,-102 389,-102 "/>
<text text-anchor="middle" x="350.5" y="-86.3" font-family="Times New Roman,serif" font-size="14.00">var.vpc_tags</text>
</g>
<!-- [root] aws_vpc.vpc_for_test&#45;server (expand)&#45;&gt;[root] var.vpc_tags -->
<g id="edge21" class="edge">
<title>[root] aws_vpc.vpc_for_test&#45;server (expand)&#45;&gt;[root] var.vpc_tags</title>
<path fill="none" stroke="black" d="M397.93,-143.7C390.3,-135.22 380.98,-124.86 372.62,-115.58"/>
<polygon fill="black" stroke="black" points="375.19,-113.2 365.89,-108.1 369.98,-117.88 375.19,-113.2"/>
</g>
<!-- [root] data.aws_eip.existing_eip (expand)&#45;&gt;[root] provider[&quot;registry.terraform.io/hashicorp/aws&quot;] -->
<g id="edge22" class="edge">
<title>[root] data.aws_eip.existing_eip (expand)&#45;&gt;[root] provider[&quot;registry.terraform.io/hashicorp/aws&quot;]</title>
<path fill="none" stroke="black" d="M1410.87,-359.81C1415.7,-341.02 1420.38,-310.57 1408.5,-288 1358.79,-193.58 1241.12,-135.69 1172.89,-108.86"/>
<polygon fill="black" stroke="black" points="1173.78,-105.45 1163.19,-105.12 1171.27,-111.98 1173.78,-105.45"/>
</g>
<!-- [root] var.existing_elastic_ip_name -->
<g id="node17" class="node">
<title>[root] var.existing_elastic_ip_name</title>
<polygon fill="none" stroke="black" points="1393.5,-324 1223.5,-324 1223.5,-288 1399.5,-288 1399.5,-318 1393.5,-324"/>
<polyline fill="none" stroke="black" points="1393.5,-324 1393.5,-318 "/>
<polyline fill="none" stroke="black" points="1399.5,-318 1393.5,-318 "/>
<text text-anchor="middle" x="1311.5" y="-302.3" font-family="Times New Roman,serif" font-size="14.00">var.existing_elastic_ip_name</text>
</g>
<!-- [root] data.aws_eip.existing_eip (expand)&#45;&gt;[root] var.existing_elastic_ip_name -->
<g id="edge23" class="edge">
<title>[root] data.aws_eip.existing_eip (expand)&#45;&gt;[root] var.existing_elastic_ip_name</title>
<path fill="none" stroke="black" d="M1382.26,-359.7C1370.31,-350.8 1355.58,-339.82 1342.65,-330.2"/>
<polygon fill="black" stroke="black" points="1344.58,-327.27 1334.47,-324.1 1340.4,-332.88 1344.58,-327.27"/>
</g>
<!-- [root] output.elastic_ip_id -->
<g id="node11" class="node">
<title>[root] output.elastic_ip_id</title>
<polygon fill="none" stroke="black" points="1629,-468 1508,-468 1508,-432 1635,-432 1635,-462 1629,-468"/>
<polyline fill="none" stroke="black" points="1629,-468 1629,-462 "/>
<polyline fill="none" stroke="black" points="1635,-462 1629,-462 "/>
<text text-anchor="middle" x="1571.5" y="-446.3" font-family="Times New Roman,serif" font-size="14.00">output.elastic_ip_id</text>
</g>
<!-- [root] output.elastic_ip_id&#45;&gt;[root] data.aws_eip.existing_eip (expand) -->
<g id="edge31" class="edge">
<title>[root] output.elastic_ip_id&#45;&gt;[root] data.aws_eip.existing_eip (expand)</title>
<path fill="none" stroke="black" d="M1530.89,-431.88C1508.1,-422.26 1479.47,-410.19 1455.33,-400.01"/>
<polygon fill="black" stroke="black" points="1456.55,-396.73 1445.98,-396.07 1453.83,-403.18 1456.55,-396.73"/>
</g>
<!-- [root] output.elastic_ip_public_ip -->
<g id="node12" class="node">
<title>[root] output.elastic_ip_public_ip</title>
<polygon fill="none" stroke="black" points="1484,-468 1321,-468 1321,-432 1490,-432 1490,-462 1484,-468"/>
<polyline fill="none" stroke="black" points="1484,-468 1484,-462 "/>
<polyline fill="none" stroke="black" points="1490,-462 1484,-462 "/>
<text text-anchor="middle" x="1405.5" y="-446.3" font-family="Times New Roman,serif" font-size="14.00">output.elastic_ip_public_ip</text>
</g>
<!-- [root] output.elastic_ip_public_ip&#45;&gt;[root] data.aws_eip.existing_eip (expand) -->
<g id="edge32" class="edge">
<title>[root] output.elastic_ip_public_ip&#45;&gt;[root] data.aws_eip.existing_eip (expand)</title>
<path fill="none" stroke="black" d="M1405.5,-431.7C1405.5,-423.98 1405.5,-414.71 1405.5,-406.11"/>
<polygon fill="black" stroke="black" points="1409,-406.1 1405.5,-396.1 1402,-406.1 1409,-406.1"/>
</g>
<!-- [root] output.test&#45;server_private_ip -->
<g id="node13" class="node">
<title>[root] output.test&#45;server_private_ip</title>
<polygon fill="none" stroke="black" points="1158,-468 987,-468 987,-432 1164,-432 1164,-462 1158,-468"/>
<polyline fill="none" stroke="black" points="1158,-468 1158,-462 "/>
<polyline fill="none" stroke="black" points="1164,-462 1158,-462 "/>
<text text-anchor="middle" x="1075.5" y="-446.3" font-family="Times New Roman,serif" font-size="14.00">output.test&#45;server_private_ip</text>
</g>
<!-- [root] output.test&#45;server_private_ip&#45;&gt;[root] aws_instance.test&#45;server (expand) -->
<g id="edge33" class="edge">
<title>[root] output.test&#45;server_private_ip&#45;&gt;[root] aws_instance.test&#45;server (expand)</title>
<path fill="none" stroke="black" d="M1029.75,-431.88C1003.74,-422.14 970.97,-409.87 943.55,-399.61"/>
<polygon fill="black" stroke="black" points="944.69,-396.3 934.1,-396.07 942.24,-402.85 944.69,-396.3"/>
</g>
<!-- [root] output.test&#45;server_public_ip -->
<g id="node14" class="node">
<title>[root] output.test&#45;server_public_ip</title>
<polygon fill="none" stroke="black" points="752.5,-468 584.5,-468 584.5,-432 758.5,-432 758.5,-462 752.5,-468"/>
<polyline fill="none" stroke="black" points="752.5,-468 752.5,-462 "/>
<polyline fill="none" stroke="black" points="758.5,-462 752.5,-462 "/>
<text text-anchor="middle" x="671.5" y="-446.3" font-family="Times New Roman,serif" font-size="14.00">output.test&#45;server_public_ip</text>
</g>
<!-- [root] output.test&#45;server_public_ip&#45;&gt;[root] aws_instance.test&#45;server (expand) -->
<g id="edge34" class="edge">
<title>[root] output.test&#45;server_public_ip&#45;&gt;[root] aws_instance.test&#45;server (expand)</title>
<path fill="none" stroke="black" d="M724.31,-431.97C754.89,-422.1 793.57,-409.62 825.71,-399.25"/>
<polygon fill="black" stroke="black" points="827.01,-402.51 835.46,-396.11 824.86,-395.85 827.01,-402.51"/>
</g>
<!-- [root] var.aws_region -->
<g id="node16" class="node">
<title>[root] var.aws_region</title>
<polygon fill="none" stroke="black" points="1166,-36 1071,-36 1071,0 1172,0 1172,-30 1166,-36"/>
<polyline fill="none" stroke="black" points="1166,-36 1166,-30 "/>
<polyline fill="none" stroke="black" points="1172,-30 1166,-30 "/>
<text text-anchor="middle" x="1121.5" y="-14.3" font-family="Times New Roman,serif" font-size="14.00">var.aws_region</text>
</g>
<!-- [root] provider[&quot;registry.terraform.io/hashicorp/aws&quot;]&#45;&gt;[root] var.aws_region -->
<g id="edge37" class="edge">
<title>[root] provider[&quot;registry.terraform.io/hashicorp/aws&quot;]&#45;&gt;[root] var.aws_region</title>
<path fill="none" stroke="black" d="M1121.5,-71.7C1121.5,-63.98 1121.5,-54.71 1121.5,-46.11"/>
<polygon fill="black" stroke="black" points="1125,-46.1 1121.5,-36.1 1118,-46.1 1125,-46.1"/>
</g>
<!-- [root] var.ssh_key_name -->
<g id="node24" class="node">
<title>[root] var.ssh_key_name</title>
<polygon fill="none" stroke="black" points="1296.5,-468 1182.5,-468 1182.5,-432 1302.5,-432 1302.5,-462 1296.5,-468"/>
<polyline fill="none" stroke="black" points="1296.5,-468 1296.5,-462 "/>
<polyline fill="none" stroke="black" points="1302.5,-462 1296.5,-462 "/>
<text text-anchor="middle" x="1242.5" y="-446.3" font-family="Times New Roman,serif" font-size="14.00">var.ssh_key_name</text>
</g>
<!-- [root] meta.count&#45;boundary (EachMode fixup) -->
<g id="node28" class="node">
<title>[root] meta.count&#45;boundary (EachMode fixup)</title>
<ellipse fill="none" stroke="black" cx="1075.5" cy="-522" rx="180.87" ry="18"/>
<text text-anchor="middle" x="1075.5" y="-518.3" font-family="Times New Roman,serif" font-size="14.00">[root] meta.count&#45;boundary (EachMode fixup)</text>
</g>
<!-- [root] meta.count&#45;boundary (EachMode fixup)&#45;&gt;[root] aws_eip_association.eip_assoc (expand) -->
<g id="edge24" class="edge">
<title>[root] meta.count&#45;boundary (EachMode fixup)&#45;&gt;[root] aws_eip_association.eip_assoc (expand)</title>
<path fill="none" stroke="black" d="M1027.91,-504.59C999.14,-494.67 962.24,-481.95 931.62,-471.39"/>
<polygon fill="black" stroke="black" points="932.51,-467.99 921.92,-468.04 930.23,-474.61 932.51,-467.99"/>
</g>
<!-- [root] meta.count&#45;boundary (EachMode fixup)&#45;&gt;[root] aws_route_table_association.assoc&#45;1 (expand) -->
<g id="edge25" class="edge">
<title>[root] meta.count&#45;boundary (EachMode fixup)&#45;&gt;[root] aws_route_table_association.assoc&#45;1 (expand)</title>
<path fill="none" stroke="black" d="M950.8,-508.93C852.04,-499.1 710.31,-484.4 576.21,-468.06"/>
<polygon fill="black" stroke="black" points="576.5,-464.57 566.15,-466.83 575.65,-471.52 576.5,-464.57"/>
</g>
<!-- [root] meta.count&#45;boundary (EachMode fixup)&#45;&gt;[root] output.elastic_ip_id -->
<g id="edge26" class="edge">
<title>[root] meta.count&#45;boundary (EachMode fixup)&#45;&gt;[root] output.elastic_ip_id</title>
<path fill="none" stroke="black" d="M1200.34,-508.96C1282.51,-500.19 1392.58,-486.84 1498.11,-468.16"/>
<polygon fill="black" stroke="black" points="1498.75,-471.6 1507.97,-466.39 1497.51,-464.71 1498.75,-471.6"/>
</g>
<!-- [root] meta.count&#45;boundary (EachMode fixup)&#45;&gt;[root] output.elastic_ip_public_ip -->
<g id="edge27" class="edge">
<title>[root] meta.count&#45;boundary (EachMode fixup)&#45;&gt;[root] output.elastic_ip_public_ip</title>
<path fill="none" stroke="black" d="M1148.74,-505.46C1197.88,-495.04 1262.95,-481.24 1315.29,-470.14"/>
<polygon fill="black" stroke="black" points="1316.19,-473.52 1325.24,-468.02 1314.74,-466.68 1316.19,-473.52"/>
</g>
<!-- [root] meta.count&#45;boundary (EachMode fixup)&#45;&gt;[root] output.test&#45;server_private_ip -->
<g id="edge28" class="edge">
<title>[root] meta.count&#45;boundary (EachMode fixup)&#45;&gt;[root] output.test&#45;server_private_ip</title>
<path fill="none" stroke="black" d="M1075.5,-503.7C1075.5,-495.98 1075.5,-486.71 1075.5,-478.11"/>
<polygon fill="black" stroke="black" points="1079,-478.1 1075.5,-468.1 1072,-478.1 1079,-478.1"/>
</g>
<!-- [root] meta.count&#45;boundary (EachMode fixup)&#45;&gt;[root] output.test&#45;server_public_ip -->
<g id="edge29" class="edge">
<title>[root] meta.count&#45;boundary (EachMode fixup)&#45;&gt;[root] output.test&#45;server_public_ip</title>
<path fill="none" stroke="black" d="M988.52,-506.15C929.35,-496.02 848.98,-482.21 768.89,-468.24"/>
<polygon fill="black" stroke="black" points="769.07,-464.72 758.62,-466.45 767.87,-471.61 769.07,-464.72"/>
</g>
<!-- [root] meta.count&#45;boundary (EachMode fixup)&#45;&gt;[root] var.ssh_key_name -->
<g id="edge30" class="edge">
<title>[root] meta.count&#45;boundary (EachMode fixup)&#45;&gt;[root] var.ssh_key_name</title>
<path fill="none" stroke="black" d="M1115.08,-504.41C1138.25,-494.7 1167.74,-482.33 1192.52,-471.95"/>
<polygon fill="black" stroke="black" points="1193.89,-475.17 1201.76,-468.08 1191.18,-468.72 1193.89,-475.17"/>
</g>
<!-- [root] provider[&quot;registry.terraform.io/hashicorp/aws&quot;] (close) -->
<g id="node29" class="node">
<title>[root] provider[&quot;registry.terraform.io/hashicorp/aws&quot;] (close)</title>
<ellipse fill="none" stroke="black" cx="644.5" cy="-522" rx="232.86" ry="18"/>
<text text-anchor="middle" x="644.5" y="-518.3" font-family="Times New Roman,serif" font-size="14.00">[root] provider[&quot;registry.terraform.io/hashicorp/aws&quot;] (close)</text>
</g>
<!-- [root] provider[&quot;registry.terraform.io/hashicorp/aws&quot;] (close)&#45;&gt;[root] aws_eip_association.eip_assoc (expand) -->
<g id="edge35" class="edge">
<title>[root] provider[&quot;registry.terraform.io/hashicorp/aws&quot;] (close)&#45;&gt;[root] aws_eip_association.eip_assoc (expand)</title>
<path fill="none" stroke="black" d="M698.53,-504.41C731.01,-494.44 772.57,-481.68 806.93,-471.13"/>
<polygon fill="black" stroke="black" points="808.34,-474.36 816.87,-468.08 806.29,-467.67 808.34,-474.36"/>
</g>
<!-- [root] provider[&quot;registry.terraform.io/hashicorp/aws&quot;] (close)&#45;&gt;[root] aws_route_table_association.assoc&#45;1 (expand) -->
<g id="edge36" class="edge">
<title>[root] provider[&quot;registry.terraform.io/hashicorp/aws&quot;] (close)&#45;&gt;[root] aws_route_table_association.assoc&#45;1 (expand)</title>
<path fill="none" stroke="black" d="M598.75,-504.23C571.98,-494.42 537.97,-481.96 509.59,-471.56"/>
<polygon fill="black" stroke="black" points="510.8,-468.27 500.2,-468.12 508.39,-474.84 510.8,-468.27"/>
</g>
<!-- [root] root -->
<g id="node30" class="node">
<title>[root] root</title>
<ellipse fill="none" stroke="black" cx="859.5" cy="-594" rx="49.29" ry="18"/>
<text text-anchor="middle" x="859.5" y="-590.3" font-family="Times New Roman,serif" font-size="14.00">[root] root</text>
</g>
<!-- [root] root&#45;&gt;[root] meta.count&#45;boundary (EachMode fixup) -->
<g id="edge38" class="edge">
<title>[root] root&#45;&gt;[root] meta.count&#45;boundary (EachMode fixup)</title>
<path fill="none" stroke="black" d="M895.17,-581.44C927.87,-570.84 976.93,-554.94 1015.63,-542.4"/>
<polygon fill="black" stroke="black" points="1016.8,-545.7 1025.23,-539.29 1014.64,-539.04 1016.8,-545.7"/>
</g>
<!-- [root] root&#45;&gt;[root] provider[&quot;registry.terraform.io/hashicorp/aws&quot;] (close) -->
<g id="edge39" class="edge">
<title>[root] root&#45;&gt;[root] provider[&quot;registry.terraform.io/hashicorp/aws&quot;] (close)</title>
<path fill="none" stroke="black" d="M824,-581.44C791.78,-570.95 743.6,-555.27 705.26,-542.78"/>
<polygon fill="black" stroke="black" points="706.34,-539.45 695.75,-539.68 704.17,-546.11 706.34,-539.45"/>
</g>
</g>
</svg>
